<?xml version="1.0" standalone="no"?>
<!DOCTYPE svg PUBLIC "-//W3C//DTD SVG 20010904//EN"
 "http://www.w3.org/TR/2001/REC-SVG-20010904/DTD/svg10.dtd">
<svg version="1.0" xmlns="http://www.w3.org/2000/svg"
 width="576.000000pt" height="576.000000pt" viewBox="0 0 576.000000 576.000000"
 preserveAspectRatio="xMidYMid meet">
<metadata>
Created by potrace 1.14, written by Peter Selinger 2001-2017
</metadata>
<g transform="translate(0.000000,576.000000) scale(0.100000,-0.100000)"
fill="#000000" stroke="none">
<path d="M0 4495 c0 -652 4 -1185 8 -1185 4 0 9 14 10 31 1 17 7 40 12 50 6
10 10 22 9 26 -3 16 14 73 20 68 4 -2 6 9 5 26 -1 16 2 29 7 29 5 0 8 3 7 8
-1 8 9 39 23 66 8 13 7 16 -1 11 -7 -4 -6 3 3 16 8 13 20 42 27 64 7 22 16 45
21 51 5 6 6 14 2 17 -3 4 -1 7 6 7 7 0 10 4 6 9 -3 5 -1 12 5 16 5 3 10 15 10
26 0 10 5 19 10 19 6 0 9 3 8 8 -4 14 13 52 24 52 5 0 8 7 4 15 -3 8 -1 15 4
15 6 0 9 3 8 8 -3 12 33 82 43 82 5 0 8 3 8 8 -4 22 2 42 11 37 6 -3 10 3 10
14 0 11 5 23 10 26 6 4 8 11 5 16 -4 5 1 9 9 9 9 0 15 3 15 8 -3 20 2 32 13
26 7 -5 8 -3 3 6 -4 7 -4 15 1 19 10 7 64 88 64 96 0 5 25 37 48 61 7 8 11 14
7 14 -4 0 0 6 7 14 7 8 22 26 33 42 11 15 28 36 38 46 9 10 17 20 17 23 0 6
13 23 58 70 17 20 32 40 32 45 0 6 8 10 17 10 9 0 14 3 10 6 -3 4 11 23 31 43
20 19 36 39 35 43 -2 4 6 10 17 13 11 4 20 13 20 21 0 8 3 13 8 11 4 -1 28 19
53 46 25 26 51 47 57 47 6 0 14 9 17 20 4 11 11 18 16 15 5 -4 9 2 9 12 0 15
2 16 10 3 8 -13 10 -12 10 3 0 9 7 17 16 17 8 0 12 5 9 10 -3 6 4 10 16 10 12
0 19 3 16 7 -4 3 13 21 38 38 24 18 41 36 37 40 -4 5 0 6 9 3 9 -4 20 2 27 13
7 10 19 19 27 19 8 0 15 5 15 11 0 5 5 7 10 4 5 -3 10 -2 10 4 0 6 20 22 45
37 25 14 45 30 45 36 0 5 4 7 9 4 5 -3 14 1 21 9 7 8 16 13 20 10 4 -3 20 7
34 20 15 14 33 25 41 25 8 0 19 8 24 18 6 9 11 14 11 9 0 -4 17 3 38 16 20 13
54 31 74 40 20 10 40 22 43 27 4 6 11 8 16 5 5 -4 9 -1 9 5 0 6 5 8 10 5 6 -3
10 -1 10 5 0 6 4 9 9 5 5 -3 12 -1 16 5 4 6 11 8 16 5 5 -4 9 -1 9 5 0 6 5 8
10 5 6 -3 13 0 16 8 2 7 10 14 17 14 21 1 42 8 48 16 3 4 16 9 28 12 13 2 28
8 35 13 17 14 128 52 137 47 4 -3 9 2 13 10 3 8 12 12 21 9 8 -4 15 -1 15 7 0
7 3 10 6 7 3 -4 20 0 39 7 18 8 35 11 39 8 3 -4 6 -2 6 3 0 5 11 11 26 12 14
1 34 6 44 12 10 5 28 10 39 10 12 0 21 4 21 9 0 4 10 7 23 7 12 -1 31 2 42 8
11 5 31 10 45 12 14 1 25 3 25 4 0 3 40 11 63 12 12 0 22 4 22 8 0 5 8 7 18 5
9 -1 23 2 30 8 8 6 12 5 12 -4 0 -11 2 -11 9 -1 4 7 12 12 17 11 5 -1 11 0 14
1 3 1 23 3 45 5 22 1 40 4 40 5 0 2 12 3 27 4 15 1 30 5 34 9 4 4 -610 7
-1364 7 l-1372 0 0 -1185z"/>
<path d="M2755 5670 c-3 -5 -1 -10 4 -10 6 0 11 5 11 10 0 6 -2 10 -4 10 -3 0
-8 -4 -11 -10z"/>
<path d="M2900 5670 c13 -9 13 -10 0 -10 -12 0 -12 -2 -2 -9 15 -9 15 -20 0
-38 -7 -9 -7 -13 1 -13 7 0 9 -5 6 -11 -10 -16 -13 -59 -5 -59 10 0 8 -20 -3
-37 -5 -8 -3 -13 3 -13 7 0 8 -6 0 -19 -7 -14 -7 -22 0 -26 8 -5 7 -11 -1 -21
-9 -11 -9 -14 0 -14 7 0 9 -5 6 -11 -10 -16 -13 -59 -5 -59 10 0 8 -20 -3 -37
-5 -8 -3 -13 3 -13 6 0 8 -5 5 -11 -10 -16 -13 -59 -5 -59 10 0 8 -20 -3 -37
-5 -8 -3 -13 3 -13 6 0 8 -5 5 -11 -12 -18 -13 -59 -1 -59 6 0 4 -5 -4 -10
-13 -9 -13 -10 0 -10 13 0 13 -1 0 -10 -11 -7 -11 -10 -2 -10 10 0 10 -5 2
-20 -8 -15 -8 -20 2 -20 9 0 9 -3 -2 -10 -13 -9 -13 -10 0 -10 13 0 13 -1 0
-10 -11 -7 -11 -10 -2 -10 10 0 10 -5 2 -20 -8 -15 -8 -20 2 -20 9 0 9 -3 -2
-10 -13 -9 -13 -10 0 -10 13 0 13 -1 0 -10 -11 -7 -11 -10 -2 -10 10 0 10 -5
2 -20 -8 -15 -8 -20 2 -20 9 0 9 -3 -2 -10 -13 -9 -13 -10 0 -10 13 0 13 -1 0
-10 -13 -9 -13 -10 0 -10 13 0 13 -1 0 -10 -13 -9 -13 -10 0 -10 13 0 13 -1 0
-10 -8 -5 -10 -10 -3 -10 12 0 12 -17 0 -37 -5 -8 -3 -13 3 -13 6 0 8 -5 5
-11 -10 -16 -13 -59 -5 -59 10 0 8 -20 -3 -37 -5 -8 -3 -13 3 -13 6 0 8 -5 5
-11 -10 -16 -13 -59 -5 -59 10 0 8 -20 -3 -37 -5 -8 -3 -13 3 -13 6 0 8 -5 5
-11 -10 -16 -13 -59 -5 -59 10 0 8 -20 -3 -37 -5 -8 -3 -13 3 -13 6 0 8 -5 5
-11 -10 -16 -13 -59 -5 -59 10 0 8 -20 -3 -37 -5 -8 -3 -13 3 -13 6 0 8 -5 5
-11 -11 -17 -13 -59 -3 -59 5 0 4 -9 -2 -20 -8 -15 -8 -20 2 -20 9 0 9 -3 -2
-10 -13 -9 -13 -10 0 -10 13 0 13 -1 0 -10 -11 -7 -11 -10 -2 -10 10 0 10 -5
2 -20 -8 -15 -8 -20 2 -20 9 0 9 -3 -2 -10 -13 -9 -13 -10 0 -10 13 0 13 -1 0
-10 -11 -7 -11 -10 -2 -10 10 0 10 -5 2 -20 -8 -15 -8 -20 2 -20 9 0 9 -3 -2
-10 -13 -9 -13 -10 0 -10 13 0 13 -1 0 -10 -11 -7 -11 -10 -2 -10 10 0 10 -5
2 -20 -8 -15 -8 -20 2 -20 9 0 9 -3 -2 -10 -13 -9 -13 -10 0 -10 13 0 13 -1 0
-10 -8 -5 -10 -10 -3 -10 12 0 12 -17 0 -37 -5 -8 -3 -13 3 -13 6 0 8 -5 5
-11 -10 -16 -13 -59 -5 -59 10 0 8 -20 -3 -37 -5 -8 -3 -13 3 -13 6 0 8 -5 5
-11 -10 -16 -13 -59 -5 -59 10 0 8 -20 -3 -37 -5 -8 -3 -13 3 -13 7 0 8 -6 0
-19 -7 -14 -7 -22 0 -26 8 -5 7 -11 -1 -21 -9 -11 -9 -14 0 -14 7 0 9 -5 6
-11 -10 -16 -13 -59 -5 -59 10 0 8 -20 -3 -37 -5 -8 -3 -13 3 -13 6 0 8 -5 5
-11 -10 -16 -13 -59 -5 -59 10 0 8 -20 -4 -39 -5 -7 -5 -16 1 -20 11 -7 11
-41 0 -58 -5 -8 -4 -13 3 -13 7 0 8 -6 1 -17 -5 -10 -5 -26 0 -40 5 -13 5 -23
1 -23 -4 0 -8 -11 -8 -25 -2 -19 3 -25 20 -25 15 0 17 3 7 9 -9 6 -10 11 -2
15 6 4 9 12 6 17 -4 5 0 9 7 9 9 0 9 3 -2 10 -11 7 -11 10 -2 10 7 0 11 4 7 9
-3 5 -1 13 5 16 8 5 7 11 -1 21 -6 8 -7 14 -2 14 9 0 11 7 14 48 1 9 7 23 13
31 9 12 8 13 -4 6 -13 -8 -13 -6 -2 8 8 9 11 21 7 27 -3 5 -2 10 4 10 5 0 8 8
6 18 -1 9 5 26 14 36 9 11 10 16 4 12 -7 -4 -13 -2 -13 3 0 6 5 11 11 11 6 0
8 9 4 20 -3 11 -2 20 3 20 5 0 10 12 10 27 0 15 4 29 10 31 6 2 8 10 5 18 -3
8 -1 14 5 14 6 0 9 8 7 18 -1 9 2 22 7 29 5 7 7 17 3 23 -3 5 -2 10 3 10 6 0
13 7 16 16 4 9 2 13 -5 8 -6 -3 -4 5 5 18 9 14 13 28 9 31 -3 4 -1 7 6 7 7 0
9 5 6 10 -3 6 -1 10 5 10 6 0 8 5 5 10 -4 6 -1 18 7 27 11 14 11 16 -2 9 -9
-4 -8 -1 3 7 9 8 17 22 17 31 0 9 4 16 10 16 5 0 7 6 4 14 -3 8 0 17 5 21 6 3
9 11 6 16 -4 5 -1 9 6 9 7 0 9 3 6 7 -4 3 1 12 11 20 9 8 11 12 5 8 -7 -3 -13
-1 -13 4 0 6 4 11 9 11 5 0 13 10 17 23 4 12 5 22 3 22 -2 0 6 14 19 32 12 17
22 36 22 42 0 6 5 11 10 11 6 0 9 3 8 8 -2 11 22 66 33 73 6 3 11 13 13 21 1
8 10 23 19 32 9 10 15 22 12 27 -4 5 -2 9 2 9 5 0 17 17 28 37 11 20 25 42 32
49 7 6 14 18 15 25 2 8 15 26 30 42 15 15 25 27 23 27 -3 0 -1 9 5 20 6 11 15
18 21 15 5 -4 8 -3 7 2 -4 15 54 93 65 86 6 -3 7 -1 3 5 -3 6 1 15 10 20 9 5
14 11 13 13 -4 4 28 43 104 123 26 28 47 55 47 59 0 5 5 5 10 2 6 -3 10 1 10
10 0 9 9 19 20 22 11 3 18 9 15 13 -3 5 4 11 15 15 11 4 18 10 15 15 -3 4 5
10 16 13 12 3 18 10 14 16 -3 6 0 11 7 11 8 0 21 8 29 18 29 32 89 83 89 75 1
-5 7 3 15 17 8 14 14 21 15 17 0 -5 6 -2 13 5 8 7 26 22 41 33 15 11 37 28 48
38 12 9 27 17 35 17 8 0 12 4 9 9 -3 4 12 17 33 27 22 10 37 22 35 25 -4 7 16
18 26 15 3 0 18 9 34 22 16 12 34 22 40 22 6 0 17 9 24 21 8 12 19 18 28 15 8
-3 14 -1 14 4 0 5 16 17 35 26 19 9 35 21 35 26 0 6 7 8 15 4 8 -3 15 -1 15 4
0 6 7 10 15 10 8 0 15 5 15 11 0 5 5 7 10 4 6 -3 10 -1 10 4 0 6 7 11 16 11 9
0 29 9 45 21 16 11 29 17 29 13 0 -4 8 0 18 9 10 10 22 14 25 10 4 -3 7 -1 7
6 0 7 4 10 9 6 5 -3 12 -1 16 5 4 6 11 8 16 5 5 -4 12 0 15 9 3 8 14 13 25 11
11 -2 17 0 14 6 -4 5 2 9 12 9 10 0 35 9 56 20 20 11 37 17 37 14 0 -3 16 3
36 15 19 12 32 15 28 9 -5 -8 -1 -7 10 2 10 8 27 16 39 17 11 2 33 9 47 17 14
7 36 12 48 11 11 -1 19 2 16 7 -3 4 -2 8 3 9 4 0 16 2 26 5 9 2 25 6 35 8 9 3
17 5 17 6 0 2 36 11 57 14 10 1 21 5 24 9 4 4 20 7 36 7 15 0 28 4 28 8 0 5 6
9 13 9 26 1 100 15 121 22 11 5 32 8 46 7 14 -1 27 2 30 6 3 4 27 9 53 10 26
2 47 7 47 11 0 5 8 6 18 4 9 -3 37 -2 62 3 25 4 -601 8 -1390 9 -930 0 -1430
-3 -1420 -9z"/>
<path d="M1110 4079 c0 -6 -6 -9 -14 -6 -8 3 -17 -1 -20 -9 -3 -9 -10 -12 -16
-9 -5 3 -10 2 -10 -3 0 -6 -13 -15 -30 -21 -16 -5 -30 -15 -30 -22 0 -7 -3 -9
-6 -6 -4 4 -20 -3 -37 -15 -19 -13 -28 -16 -23 -7 4 7 0 5 -8 -5 -9 -11 -24
-21 -33 -22 -10 -2 -23 -10 -29 -18 -6 -9 -14 -13 -17 -9 -4 3 -7 0 -7 -7 0
-7 -3 -10 -7 -7 -3 4 -15 0 -25 -10 -10 -9 -21 -13 -25 -10 -3 4 -16 -3 -28
-16 -11 -12 -28 -23 -36 -25 -7 -2 -18 -8 -24 -15 -5 -7 -15 -12 -21 -12 -6 0
-22 -8 -36 -19 -18 -13 -23 -25 -20 -42 2 -13 8 -21 13 -18 5 3 9 -1 9 -9 0
-17 30 -77 31 -62 0 6 4 0 10 -13 5 -13 13 -21 19 -17 6 4 7 -1 3 -11 -4 -10
-2 -15 3 -11 6 3 23 -5 38 -18 16 -14 33 -22 37 -19 5 3 9 0 9 -5 0 -6 9 -11
20 -11 11 0 20 -6 20 -12 0 -9 4 -8 10 2 6 9 10 10 10 3 0 -8 24 -11 78 -9 94
4 95 4 87 15 -3 6 4 8 15 6 11 -2 20 0 20 6 0 5 3 8 8 7 13 -4 82 47 82 60 0
7 4 11 9 7 5 -3 12 4 16 15 3 11 11 20 16 20 6 0 7 5 4 10 -3 6 -1 10 4 10 6
0 11 8 11 18 0 10 4 22 10 28 5 5 11 26 14 46 2 21 7 42 11 48 3 5 2 10 -4 10
-6 0 -6 11 -1 30 6 21 5 28 -2 24 -7 -5 -9 0 -6 14 4 13 1 22 -5 22 -8 0 -7 3
1 9 11 7 11 9 -2 14 -9 4 -16 15 -16 25 0 10 -9 28 -20 40 -11 12 -20 25 -20
31 0 5 -7 12 -16 15 -21 8 -24 8 -24 -5z"/>
<path d="M2905 3009 c-9 -14 -13 -71 -4 -62 8 9 20 73 14 73 -2 0 -7 -5 -10
-11z"/>
<path d="M13 2883 c-10 -4 -13 -252 -12 -1201 1 -1074 2 -1191 15 -1142 9 30
16 65 17 77 0 12 5 19 9 17 4 -3 8 6 8 19 0 13 3 27 7 30 3 4 8 19 9 34 2 14
7 29 11 32 7 6 9 14 15 64 1 9 6 17 10 17 4 0 8 8 8 18 0 10 7 28 16 40 8 12
13 26 9 31 -3 5 -1 12 5 16 5 3 10 15 10 26 0 10 5 19 11 19 5 0 7 4 4 10 -3
5 -1 10 5 10 6 0 8 5 5 10 -3 6 0 10 7 10 10 0 10 2 -1 9 -11 7 -11 10 2 17 9
5 15 11 15 14 -2 13 14 50 23 50 5 0 9 11 9 25 0 14 5 25 11 25 5 0 7 5 4 10
-3 6 -1 10 5 10 6 0 8 5 5 10 -3 6 -1 10 4 10 6 0 10 3 9 8 -3 13 25 62 35 62
6 0 7 3 4 6 -4 4 2 19 13 34 11 16 20 33 20 39 0 6 5 11 11 11 5 0 8 4 5 9 -5
7 3 20 44 69 6 6 7 12 3 12 -4 0 1 7 12 16 11 8 19 16 18 17 -7 6 11 46 18 41
8 -5 13 9 7 21 -2 2 7 12 20 20 12 9 20 21 16 26 -3 5 0 8 8 7 7 -2 12 3 11
10 -2 6 2 12 9 12 6 0 9 3 5 6 -3 3 7 19 23 34 16 15 26 31 23 34 -4 3 -1 6 6
6 7 0 9 5 6 10 -3 6 1 10 10 10 9 0 14 4 10 9 -3 5 4 12 15 16 11 4 18 10 15
14 -6 10 102 121 110 113 3 -4 3 2 -1 13 -4 11 -4 17 0 14 4 -4 40 27 81 67
41 41 80 74 85 74 6 0 9 3 7 8 -1 4 1 8 5 10 4 1 18 12 31 25 33 32 107 91
118 95 5 2 6 9 3 14 -4 7 -2 8 4 4 6 -3 20 4 31 16 12 12 21 18 21 13 0 -5 7
1 16 13 8 12 20 22 25 22 6 0 17 6 24 13 30 26 44 37 50 37 8 0 69 44 73 53 2
4 8 5 13 1 5 -3 9 0 9 5 0 6 7 11 15 11 8 0 15 5 15 10 0 6 6 10 14 10 8 0 21
6 28 13 13 13 36 24 52 25 5 0 13 7 18 16 5 9 13 14 19 11 5 -4 9 -2 9 2 0 10
69 43 90 43 7 0 10 3 7 7 -7 6 69 45 91 46 6 0 12 4 12 9 0 5 5 6 10 3 5 -3
10 -1 10 4 0 6 8 11 18 11 9 0 26 7 36 15 10 8 23 12 28 9 4 -3 11 2 14 10 3
9 10 14 15 11 4 -3 16 -1 26 4 26 14 57 24 66 23 4 -1 7 3 7 9 0 5 5 7 10 4 6
-3 10 0 10 7 0 10 3 9 10 -2 8 -12 10 -12 16 3 3 9 10 14 15 11 5 -3 9 0 9 6
0 6 4 9 10 5 5 -3 25 1 44 9 19 8 37 12 40 8 3 -3 6 0 6 6 0 6 7 9 15 6 8 -4
15 -2 15 3 0 5 11 10 26 11 14 1 34 6 44 12 10 5 28 10 39 10 12 0 21 4 21 9
0 4 10 7 23 6 12 -1 33 5 46 13 19 11 22 11 15 1 -7 -12 -5 -12 9 -1 9 8 21
11 26 8 5 -4 12 -2 16 4 4 6 10 8 15 5 5 -3 11 -1 14 3 3 5 19 8 36 7 16 -1
30 2 30 6 0 4 9 6 20 4 11 -2 20 -1 20 3 0 4 19 9 43 11 77 7 92 8 92 11 0 1
19 3 42 4 24 1 46 6 50 10 4 4 -5 5 -20 2 -15 -2 -27 -2 -27 2 0 4 -11 7 -25
7 -14 0 -25 -3 -25 -6 0 -3 -7 -6 -15 -6 -8 0 -15 4 -15 9 0 5 -9 4 -20 -2
-14 -8 -20 -8 -20 0 0 7 -6 7 -21 0 -15 -8 -24 -8 -34 0 -9 8 -15 8 -20 0 -3
-6 -11 -7 -18 -3 -13 8 -113 7 -127 -2 -6 -3 -10 -1 -10 5 0 7 -6 8 -19 0 -13
-6 -22 -7 -26 0 -4 6 -15 6 -30 0 -14 -5 -25 -6 -25 -2 0 4 -25 7 -55 7 -30 0
-55 -3 -55 -7 0 -4 -11 -3 -25 2 -14 5 -27 5 -30 0 -3 -5 -18 -5 -35 0 -18 5
-30 5 -30 0 0 -6 -10 -6 -25 0 -15 6 -26 6 -30 -1 -4 -5 -13 -6 -22 -1 -8 5
-33 6 -54 2 -21 -4 -39 -5 -39 -1 0 3 -25 6 -55 6 -30 0 -55 -4 -55 -8 0 -4
-8 -3 -18 2 -11 6 -24 6 -34 0 -10 -6 -19 -6 -23 0 -4 7 -15 7 -30 1 -14 -5
-25 -6 -25 -2 0 4 -25 7 -55 7 -30 0 -55 -3 -55 -7 0 -4 -11 -3 -25 2 -14 5
-27 5 -30 0 -3 -5 -18 -5 -35 0 -18 5 -30 5 -30 0 0 -6 -10 -6 -25 0 -15 6
-26 6 -30 -1 -4 -5 -13 -6 -22 -1 -8 5 -33 6 -54 2 -21 -4 -39 -5 -39 -1 0 3
-25 6 -55 6 -30 0 -55 -4 -55 -8 0 -4 -8 -3 -18 2 -11 6 -24 6 -34 0 -10 -6
-19 -6 -23 0 -4 7 -15 7 -30 1 -14 -5 -25 -6 -25 -2 0 4 -25 7 -55 7 -30 0
-55 -3 -55 -7 0 -4 -11 -3 -25 2 -14 5 -27 5 -30 0 -3 -5 -18 -5 -35 0 -18 5
-30 5 -30 0 0 -6 -10 -6 -25 0 -15 6 -26 6 -30 -1 -4 -5 -13 -6 -22 -1 -8 5
-33 6 -54 2 -21 -4 -39 -5 -39 -1 0 3 -25 6 -55 6 -30 0 -55 -4 -55 -8 0 -4
-8 -3 -18 2 -11 6 -24 6 -34 0 -10 -6 -19 -6 -23 0 -4 7 -15 7 -30 1 -14 -5
-25 -6 -25 -2 0 4 -25 7 -55 7 -30 0 -55 -3 -55 -7 0 -4 -11 -3 -25 2 -14 5
-27 5 -30 0 -3 -5 -18 -5 -35 0 -18 5 -30 5 -30 0 0 -6 -10 -6 -25 0 -15 6
-26 6 -30 0 -4 -6 -13 -7 -23 -1 -9 4 -23 6 -29 4z"/>
<path d="M2904 2879 c-11 -5 -13 -8 -5 -8 11 -1 11 -4 0 -17 -10 -13 -10 -17
0 -23 10 -7 10 -13 2 -29 -8 -15 -8 -23 0 -28 8 -4 7 -9 -2 -15 -12 -7 -12 -9
0 -9 11 0 11 -3 1 -15 -9 -11 -9 -15 -1 -15 7 0 9 -5 6 -11 -10 -16 -13 -59
-5 -59 10 0 8 -20 -3 -37 -5 -8 -3 -13 3 -13 6 0 8 -5 5 -11 -12 -18 -13 -59
-1 -59 6 0 4 -5 -4 -10 -13 -9 -13 -10 0 -10 13 0 13 -1 0 -10 -11 -7 -11 -10
-2 -10 10 0 10 -5 2 -20 -8 -15 -8 -20 2 -20 9 0 9 -3 -2 -10 -13 -9 -13 -10
0 -10 13 0 13 -1 0 -10 -11 -7 -11 -10 -2 -10 10 0 10 -5 2 -20 -8 -15 -8 -20
2 -20 9 0 9 -3 -2 -10 -13 -9 -13 -10 0 -10 13 0 13 -1 0 -10 -11 -7 -11 -10
-2 -10 10 0 10 -5 2 -20 -8 -15 -8 -20 2 -20 9 0 9 -3 -2 -10 -13 -9 -13 -10
0 -10 13 0 13 -1 0 -10 -13 -9 -13 -10 0 -10 13 0 13 -1 0 -10 -13 -9 -13 -10
0 -10 13 0 13 -1 0 -10 -8 -5 -10 -10 -3 -10 12 0 12 -17 0 -37 -5 -8 -3 -13
3 -13 6 0 8 -5 5 -11 -10 -16 -13 -59 -5 -59 10 0 8 -20 -3 -37 -5 -8 -3 -13
3 -13 6 0 8 -5 5 -11 -10 -16 -13 -59 -5 -59 10 0 8 -20 -3 -37 -5 -8 -3 -13
3 -13 6 0 8 -5 5 -11 -10 -16 -13 -59 -5 -59 10 0 8 -20 -3 -37 -5 -8 -3 -13
3 -13 6 0 8 -5 5 -11 -10 -16 -13 -59 -5 -59 10 0 8 -20 -3 -37 -5 -8 -3 -13
3 -13 6 0 8 -5 5 -11 -11 -17 -13 -59 -3 -59 5 0 4 -9 -2 -20 -8 -15 -8 -20 2
-20 9 0 9 -3 -2 -10 -13 -9 -13 -10 0 -10 13 0 13 -1 0 -10 -11 -7 -11 -10 -2
-10 10 0 10 -5 2 -20 -8 -15 -8 -20 2 -20 9 0 9 -3 -2 -10 -13 -9 -13 -10 0
-10 13 0 13 -1 0 -10 -11 -7 -11 -10 -2 -10 10 0 10 -5 2 -20 -8 -15 -8 -20 2
-20 9 0 9 -3 -2 -10 -13 -9 -13 -10 0 -10 13 0 13 -1 0 -10 -11 -7 -11 -10 -2
-10 10 0 10 -5 2 -20 -8 -15 -8 -20 2 -20 9 0 9 -3 -2 -10 -13 -9 -13 -10 0
-10 13 0 13 -1 0 -10 -8 -5 -10 -10 -3 -10 12 0 12 -17 0 -37 -5 -8 -3 -13 3
-13 6 0 8 -5 5 -11 -10 -16 -13 -59 -5 -59 10 0 8 -20 -3 -38 -5 -7 -3 -12 3
-12 6 0 8 -5 5 -11 -10 -16 -13 -59 -5 -59 10 0 8 -20 -3 -37 -5 -8 -3 -13 3
-13 7 0 8 -6 0 -19 -7 -14 -7 -22 0 -26 8 -5 7 -11 -1 -21 -9 -11 -9 -14 0
-14 7 0 9 -5 6 -11 -10 -16 -13 -59 -5 -59 10 0 8 -20 -3 -37 -5 -8 -3 -13 3
-13 6 0 8 -5 5 -11 -10 -16 -13 -59 -5 -59 10 0 8 -20 -3 -37 -5 -8 -3 -13 3
-13 8 0 7 -6 -1 -21 -9 -17 -8 -23 2 -30 11 -7 11 -9 -1 -9 -12 0 -12 -2 -2
-9 15 -9 15 -20 0 -38 -7 -9 -7 -13 1 -13 7 0 9 -5 6 -11 -10 -16 -13 -59 -5
-59 10 0 8 -20 -4 -39 -5 -8 -4 -16 4 -21 17 -10 17 -15 1 -33 -9 -12 -10 -17
-2 -17 7 0 9 -5 4 -12 -10 -17 -13 -38 -4 -38 4 0 7 -9 7 -20 0 -11 -3 -20 -6
-20 -3 0 -5 -13 -5 -30 0 -16 5 -30 10 -30 6 0 3 -5 -5 -10 -13 -8 -12 -10 4
-10 13 0 17 5 13 20 -3 11 -1 20 3 20 5 0 9 8 9 18 0 29 7 68 16 82 6 9 4 11
-6 5 -12 -8 -12 -6 0 8 7 9 10 17 6 17 -4 0 -2 6 4 13 6 8 8 17 4 20 -3 4 0
14 8 24 12 15 12 16 -1 8 -13 -8 -13 -6 -2 8 8 9 12 22 10 29 -3 7 2 19 10 27
10 10 11 16 4 19 -12 4 4 40 23 54 6 5 6 8 -1 8 -7 0 -9 10 -6 25 2 14 7 23
11 21 3 -2 7 10 8 27 2 18 7 33 12 35 6 2 8 9 5 17 -3 7 -1 16 5 19 6 4 8 13
4 21 -3 8 0 15 6 15 6 0 10 3 10 8 -1 4 0 9 1 12 1 5 7 27 13 57 2 7 6 16 10
19 4 4 7 16 7 26 0 10 5 18 12 18 6 0 8 3 5 6 -3 4 -1 16 5 28 7 11 13 29 15
40 2 10 13 32 25 49 12 17 16 27 8 22 -15 -9 -7 9 18 38 8 9 12 17 7 17 -4 0
0 12 10 26 9 14 18 35 20 46 3 11 12 26 21 33 9 6 14 17 10 23 -4 7 -3 12 3
12 5 0 13 10 17 22 3 12 13 28 20 36 8 7 12 18 8 23 -3 5 2 12 10 15 9 3 13
10 10 15 -3 5 0 9 5 9 6 0 11 9 11 20 0 11 7 23 15 26 8 4 15 12 15 20 0 8 5
14 10 14 6 0 10 7 10 15 0 8 5 15 11 15 5 0 7 5 4 10 -3 6 1 13 9 16 9 3 16
12 16 20 0 8 5 14 11 14 5 0 8 4 5 8 -3 5 3 16 12 25 23 21 34 36 67 85 15 23
32 39 38 35 6 -3 7 -1 3 5 -3 6 1 15 10 20 9 5 14 11 13 13 -4 5 39 55 99 116
23 23 40 43 38 43 -3 0 8 14 24 30 16 17 34 30 40 30 6 0 9 4 5 9 -3 5 4 12
15 16 11 4 18 10 15 15 -3 4 5 10 16 13 12 3 18 10 14 16 -3 6 0 11 7 11 7 0
30 18 51 40 21 23 41 38 46 36 4 -3 14 6 21 19 7 14 17 25 22 25 5 0 14 5 21
10 46 39 61 50 69 50 4 0 8 7 8 16 0 8 4 13 9 10 4 -3 21 6 37 19 16 14 42 32
59 40 16 8 26 15 21 15 -6 0 -1 6 9 14 11 8 23 12 27 10 5 -3 8 0 8 7 0 7 3
10 6 6 3 -3 18 5 32 18 14 13 29 22 33 20 4 -3 10 2 13 11 4 9 13 14 21 10 8
-3 15 -1 15 4 0 5 16 17 35 26 19 9 35 20 35 26 0 5 6 8 13 6 6 -1 25 6 41 17
16 11 36 20 45 22 9 1 17 7 19 12 2 6 12 11 23 11 10 0 19 5 19 11 0 5 5 7 10
4 6 -3 10 -2 10 2 0 8 63 36 83 38 4 0 11 5 15 11 4 6 15 10 25 8 9 -1 15 1
12 6 -3 4 11 11 30 14 22 5 33 11 29 18 -4 7 -2 8 5 4 6 -4 23 0 38 9 17 12
23 13 17 4 -6 -11 -3 -10 10 1 18 14 36 21 68 23 9 1 16 6 15 11 -1 6 7 10 18
11 11 0 31 7 44 14 20 11 22 11 15 -1 -7 -11 -5 -11 9 0 9 8 22 10 28 6 8 -4
9 -3 5 4 -4 7 -4 12 1 13 4 0 15 2 23 4 8 3 23 6 32 8 10 2 20 6 24 9 3 4 12
4 20 1 8 -3 14 -1 14 4 0 5 6 10 13 11 15 1 52 10 52 12 0 2 47 10 73 12 12 1
22 6 22 12 0 5 2 7 5 4 4 -3 25 -1 48 4 23 6 56 12 72 14 43 7 70 12 70 14 0
1 16 3 35 4 19 1 40 4 45 8 6 3 25 5 43 4 18 -1 28 2 24 6 -12 12 -82 16 -88
6 -3 -5 -11 -5 -17 -1 -16 10 -48 10 -69 0 -12 -5 -18 -3 -18 5 0 10 -2 10 -8
1 -5 -7 -13 -9 -21 -3 -8 4 -24 5 -36 0 -12 -5 -28 -4 -35 0 -8 5 -18 6 -24 3
-12 -8 -66 -10 -66 -3 0 3 -25 5 -55 5 -30 0 -55 -3 -55 -7 0 -4 -11 -3 -25 2
-15 6 -26 6 -30 0 -4 -6 -13 -7 -23 -1 -11 6 -24 6 -35 0 -9 -6 -17 -6 -17 -2
0 4 -25 8 -55 8 -30 0 -55 -3 -55 -7 0 -4 -11 -3 -25 2 -15 6 -26 6 -30 0 -4
-6 -13 -7 -23 -1 -11 6 -24 6 -35 0 -9 -6 -17 -6 -17 -2 0 10 -63 8 -79 -2 -6
-3 -11 -1 -11 5 0 8 -6 8 -20 0 -14 -8 -20 -8 -20 0 0 8 -6 8 -20 0 -14 -8
-20 -8 -20 0 0 8 -6 8 -20 0 -14 -8 -20 -8 -20 0 0 8 -6 8 -20 0 -14 -8 -20
-8 -20 0 0 8 -6 8 -20 0 -14 -8 -20 -8 -20 0 0 8 -6 8 -20 0 -14 -8 -20 -8
-20 0 0 7 -6 7 -21 -1 -14 -7 -24 -8 -31 -1 -7 7 -19 7 -34 2 -13 -5 -24 -6
-24 -2 0 4 -11 7 -25 7 -14 0 -25 -3 -25 -7 0 -4 -11 -3 -25 2 -15 6 -26 6
-30 0 -4 -6 -13 -7 -24 -1 -10 6 -23 6 -31 1 -8 -5 -18 -6 -24 -3 -14 9 -66 9
-66 0 0 -4 -8 -3 -18 2 -11 6 -24 6 -34 0 -10 -6 -19 -6 -23 0 -4 7 -15 7 -30
1 -14 -5 -25 -6 -25 -2 0 4 -25 7 -55 7 -30 0 -55 -3 -55 -7 0 -4 -8 -4 -17
-1 -22 8 -64 8 -86 0 -9 -3 -17 -2 -17 4 0 6 -7 6 -20 -1 -14 -8 -20 -8 -20 0
0 8 -6 8 -20 0 -14 -8 -20 -8 -20 0 0 8 -6 8 -20 0 -14 -8 -20 -8 -20 0 0 8
-6 8 -20 0 -14 -8 -20 -8 -20 0 0 8 -6 8 -20 0 -14 -8 -20 -8 -20 0 0 8 -6 8
-20 0 -14 -8 -20 -8 -20 0 0 6 -5 8 -11 5 -15 -10 -79 -12 -79 -3 0 3 -13 3
-30 -2 -16 -5 -30 -6 -30 -2 0 4 -25 7 -55 7 -30 0 -55 -3 -55 -7 0 -4 -11 -3
-25 2 -15 6 -26 6 -30 0 -4 -6 -13 -7 -23 -1 -11 6 -24 6 -35 0 -9 -6 -17 -6
-17 -2 0 4 -25 8 -55 8 -30 0 -55 -3 -55 -7 0 -4 -11 -3 -25 2 -15 6 -26 6
-30 -1 -4 -5 -11 -7 -16 -3 -16 9 -65 11 -85 3z"/>
<path d="M5735 2880 c-3 -5 -1 -10 4 -10 6 0 11 5 11 10 0 6 -2 10 -4 10 -3 0
-8 -4 -11 -10z"/>
<path d="M2900 190 c8 -5 20 -10 25 -10 6 0 3 5 -5 10 -8 5 -19 10 -25 10 -5
0 -3 -5 5 -10z"/>
<path d="M2895 160 c3 -5 8 -10 11 -10 2 0 4 5 4 10 0 6 -5 10 -11 10 -5 0 -7
-4 -4 -10z"/>
</g>
</svg>
